<svg width="20" height="20" viewBox="0 0 20 20" fill="none" xmlns="http://www.w3.org/2000/svg">
<path d="M7.5 0C7.27899 0 7.06702 0.0877975 6.91074 0.244078C6.75446 0.400358 6.66667 0.61232 6.66667 0.833333C6.66667 1.05435 6.75446 1.26631 6.91074 1.42259C7.06702 1.57887 7.27899 1.66667 7.5 1.66667H9.16667V18.3333H7.5C7.27899 18.3333 7.06702 18.4211 6.91074 18.5774C6.75446 18.7337 6.66667 18.9457 6.66667 19.1667C6.66667 19.3877 6.75446 19.5996 6.91074 19.7559C7.06702 19.9122 7.27899 20 7.5 20H12.5C12.721 20 12.933 19.9122 13.0893 19.7559C13.2455 19.5996 13.3333 19.3877 13.3333 19.1667C13.3333 18.9457 13.2455 18.7337 13.0893 18.5774C12.933 18.4211 12.721 18.3333 12.5 18.3333H10.8333V1.66667H12.5C12.721 1.66667 12.933 1.57887 13.0893 1.42259C13.2455 1.26631 13.3333 1.05435 13.3333 0.833333C13.3333 0.61232 13.2455 0.400358 13.0893 0.244078C12.933 0.0877975 12.721 0 12.5 0H7.5ZM3.33333 3.33333H7.5V5H3.33333C2.89131 5 2.46738 5.17559 2.15482 5.48816C1.84226 5.80072 1.66667 6.22464 1.66667 6.66667V13.3283C1.66667 13.7704 1.84226 14.1943 2.15482 14.5068C2.46738 14.8194 2.89131 14.995 3.33333 14.995H7.5V16.6617H3.33333C2.44928 16.6617 1.60143 16.3105 0.976311 15.6854C0.351189 15.0602 0 14.2124 0 13.3283V6.66667C0 5.78261 0.351189 4.93477 0.976311 4.30964C1.60143 3.68452 2.44928 3.33333 3.33333 3.33333ZM16.6667 14.995H12.5V16.6617H16.6667C17.5507 16.6617 18.3986 16.3105 19.0237 15.6854C19.6488 15.0602 20 14.2124 20 13.3283V6.66667C20 5.78261 19.6488 4.93477 19.0237 4.30964C18.3986 3.68452 17.5507 3.33333 16.6667 3.33333H12.5V5H16.6667C17.1087 5 17.5326 5.17559 17.8452 5.48816C18.1577 5.80072 18.3333 6.22464 18.3333 6.66667V13.3283C18.3333 13.7704 18.1577 14.1943 17.8452 14.5068C17.5326 14.8194 17.1087 14.995 16.6667 14.995Z" fill="black"/>
</svg>
